<?xml version="1.0" encoding="utf-8"?>
<!-- Generator: Adobe Illustrator 22.0.1, SVG Export Plug-In . SVG Version: 6.00 Build 0)  -->
<svg version="1.1" id="Layer_1" xmlns="http://www.w3.org/2000/svg" xmlns:xlink="http://www.w3.org/1999/xlink" x="0px" y="0px"
	 viewBox="0 0 36.9 37.3" style="enable-background:new 0 0 36.9 37.3;" xml:space="preserve">
<style type="text/css">
	.st0{fill:#8BBF37;enable-background:new    ;}
	.st1{fill:#3153A1;enable-background:new    ;}
	.st2{fill:#FDBE18;enable-background:new    ;}
	.st3{fill:#FDBE18;}
</style>
<g>
	<path class="st0" d="M5.8,5.5C5.7,6.7,5.6,8.1,5.6,9.7c0,0.9,0.1,2.5,0.4,4.4c0.3,1.6,0.8,4,2.1,6.7c1.1,0,3.1,0,5.3-0.9
		c2.1-0.8,3.5-2.1,4.3-2.8c-0.4-0.8-0.9-2.1-1.1-3.8c-0.1-1.2-0.3-3.2,0.7-5.3c1.2-2.2,3.1-3.2,3.8-3.5c-0.9-0.6-1.8-1.1-2.7-1.7
		c-0.6,0.5-1.6,1.2-2.9,1.8c-1.7,0.8-3.2,1-4.5,1.1C9.8,5.7,8,5.8,5.8,5.5z"/>
	<path class="st1" d="M22.8,5.1c-0.5,0.2-3,1.4-4.2,4.3c-1.3,3.4,0.4,6.3,0.6,6.7c0.9,0,3.3,0.1,5.7,1.5c2.3,1.4,3.5,3.3,3.9,4.1
		c0.9-1.7,1.4-3.2,1.7-4.2c0.2-0.7,0.6-2.3,0.8-7.6c0.1-1.8,0.1-3.3,0.1-4.4c-1.2,0.2-2.6,0.3-4.3,0.2C25.4,5.6,23.9,5.4,22.8,5.1z"
		/>
	<path class="st2" d="M8.5,21.9c1.2,0.1,3.8,0.2,6.7-1.2c1.9-1,3.2-2.3,3.9-3.1c0.8-0.1,2.9-0.1,5.1,1.2c2.6,1.5,3.5,3.9,3.8,4.6
		c-0.8,1.3-2.1,3.1-4.3,4.7c-2,1.6-3.9,2.4-5.2,2.9C17,30.3,15,29.3,13,27.5C10.7,25.5,9.3,23.4,8.5,21.9z"/>
</g>
<path class="st3" d="M775.7,1159.7"/>
</svg>
